<?xml version="1.0" encoding="UTF-8" standalone="no"?>
<svg
   xmlns:dc="http://purl.org/dc/elements/1.1/"
   xmlns:cc="http://creativecommons.org/ns#"
   xmlns:rdf="http://www.w3.org/1999/02/22-rdf-syntax-ns#"
   xmlns:svg="http://www.w3.org/2000/svg"
   xmlns="http://www.w3.org/2000/svg"
   xmlns:sodipodi="http://sodipodi.sourceforge.net/DTD/sodipodi-0.dtd"
   xmlns:inkscape="http://www.inkscape.org/namespaces/inkscape"
   width="200mm"
   height="200mm"
   viewBox="0 0 200 200"
   version="1.1"
   id="svg8"
   inkscape:version="1.0.1 (3bc2e813f5, 2020-09-07)"
   sodipodi:docname="icon.svg">
  <defs
     id="defs2" />
  <sodipodi:namedview
     id="base"
     pagecolor="#ffffff"
     bordercolor="#666666"
     borderopacity="1.0"
     inkscape:pageopacity="0.0"
     inkscape:pageshadow="2"
     inkscape:zoom="0.98994949"
     inkscape:cx="148.05247"
     inkscape:cy="544.81624"
     inkscape:document-units="mm"
     inkscape:current-layer="layer1"
     inkscape:document-rotation="0"
     showgrid="false"
     inkscape:window-width="2599"
     inkscape:window-height="1626"
     inkscape:window-x="4748"
     inkscape:window-y="384"
     inkscape:window-maximized="0" />
  <metadata
     id="metadata5">
    <rdf:RDF>
      <cc:Work
         rdf:about="">
        <dc:format>image/svg+xml</dc:format>
        <dc:type
           rdf:resource="http://purl.org/dc/dcmitype/StillImage" />
        <dc:title />
      </cc:Work>
    </rdf:RDF>
  </metadata>
  <g
     inkscape:label="Layer 1"
     inkscape:groupmode="layer"
     id="layer1">
    <text
       xml:space="preserve"
       style="font-style:normal;font-weight:normal;font-size:10.5833px;line-height:1.25;font-family:sans-serif;text-align:center;text-anchor:middle;fill:#000000;fill-opacity:1;stroke:none;stroke-width:0.264583"
       x="66.238449"
       y="104.32143"
       id="text12"><tspan
         sodipodi:role="line"
         x="66.238449"
         y="104.32143"
         style="text-align:center;text-anchor:middle;stroke-width:0.264583"
         id="tspan16" /></text>
    <path
       style="fill:#000000;stroke:#000000;stroke-width:0.420042px;stroke-linecap:butt;stroke-linejoin:miter;stroke-opacity:1"
       d="M 4.3565045,160.50985 C 21.183512,108.45613 194.27695,3.0865688 194.27695,3.0865688 c 0,0 -121.050119,142.1271312 -189.9204455,157.4232812 z"
       id="path40" />
    <path
       id="path72"
       style="fill:none;stroke:#000000;stroke-width:2.77188;stroke-linecap:butt;stroke-linejoin:miter;stroke-miterlimit:4;stroke-dasharray:none;stroke-opacity:1"
       d="m 4.3565045,160.50985 c 5.8643145,8.42671 18.8505045,6.47091 26.2593775,-0.35489 8.32812,-5.70949 8.150926,-11.41871 30.951651,-12.00499 5.44864,-0.57267 -10.086184,-0.32378 -12.343483,0.69157 -7.994557,2.37265 -18.03116,10.86103 -14.594017,19.93068 3.719699,8.86292 16.627822,10.25502 23.537698,2.93768 7.617709,-6.50305 14.070122,-13.70664 24.658073,-14.01096 3.520067,0.0745 7.749828,1.26641 2.134308,-0.38846 -8.738209,-3.48651 -21.307017,7.05565 -17.195324,16.69146 4.571906,10.47262 20.81158,9.1399 26.414042,-0.94029 3.739652,-7.79284 -1.8736,-22.94551 -8.621874,-12.49566 -3.160838,8.3155 4.439145,11.95712 11.125189,14.12896 7.347005,1.92029 20.160165,-1.88983 23.035515,-3.84596 3.00478,-1.59967 10.4797,-7.74314 10.4797,-7.74314 -6.49405,-3.25628 -22.54721,0.46267 -24.85295,8.86531 -3.29028,10.51857 11.2294,18.76496 18.58309,12.63786 12.36845,-13.12456 22.43907,-35.52988 20.63165,-52.44826 -9.96731,8.99173 -15.62762,35.11201 -16.58673,45.89378 1.96978,10.77529 12.34609,9.82253 22.45473,4.67382 6.6387,-3.6434 19.29859,-8.7672 15.00015,-13.81039 -10.39303,-2.64047 -28.45218,9.92861 -20.75797,16.81509 7.07544,8.51888 19.28784,8.34818 29.5876,5.60919 5.32743,-1.36941 10.68685,-1.98339 15.67868,0.19372"
       sodipodi:nodetypes="ccccccccccccccccccccccc" />
  </g>
</svg>
